<svg width="2600" height="2600" viewBox="0 0 2600 2600" fill="none" xmlns="http://www.w3.org/2000/svg">
<g clip-path="url(#clip0_904_2)">
<rect width="2600" height="2600" fill="white"/>
<rect x="160" y="1003" width="500" height="500" rx="250" fill="#066BFF"/>
<rect x="239" y="1207" width="250" height="250" transform="rotate(-30 239 1207)" fill="#066BFF"/>
<rect x="239" y="1207" width="250" height="50" rx="25" transform="rotate(-30 239 1207)" fill="black"/>
<rect x="339" y="1381" width="250" height="50" rx="25" transform="rotate(-30 339 1381)" fill="black"/>
<rect x="255.671" y="1312.35" width="334.343" height="50" rx="25" transform="rotate(-30 255.671 1312.35)" fill="black"/>
<path d="M779.766 1400.73C752.308 1400.73 732.484 1393.9 720.293 1380.23C708.216 1366.55 702.178 1344.79 702.178 1314.94V1285.55H761.65V1323.15C761.65 1330.1 762.676 1335.57 764.727 1339.55C766.891 1343.43 770.594 1345.36 775.835 1345.36C781.304 1345.36 785.063 1343.77 787.114 1340.58C789.279 1337.39 790.361 1332.15 790.361 1324.86C790.361 1315.63 789.45 1307.94 787.627 1301.78C785.804 1295.52 782.614 1289.59 778.057 1284.01C773.613 1278.31 767.404 1271.71 759.429 1264.19L732.427 1238.55C712.261 1219.53 702.178 1197.76 702.178 1173.27C702.178 1147.63 708.102 1128.09 719.951 1114.65C731.914 1101.21 749.175 1094.48 771.733 1094.48C799.305 1094.48 818.844 1101.83 830.352 1116.53C841.973 1131.23 847.783 1153.56 847.783 1183.52H786.602V1162.84C786.602 1158.74 785.405 1155.55 783.013 1153.27C780.734 1150.99 777.601 1149.86 773.613 1149.86C768.828 1149.86 765.296 1151.22 763.018 1153.96C760.853 1156.58 759.771 1160 759.771 1164.21C759.771 1168.43 760.91 1172.98 763.188 1177.88C765.467 1182.78 769.967 1188.42 776.689 1194.8L811.382 1228.13C818.332 1234.74 824.712 1241.74 830.522 1249.15C836.333 1256.44 841.004 1264.98 844.536 1274.78C848.068 1284.47 849.834 1296.32 849.834 1310.33C849.834 1338.58 844.593 1360.74 834.111 1376.81C823.743 1392.76 805.628 1400.73 779.766 1400.73ZM921.611 1400.73C905.091 1400.73 893.926 1397.26 888.115 1390.31C882.419 1383.25 879.57 1372.48 879.57 1358.01V1198.22H862.31V1151.56H879.57V1097.22H939.043V1151.56H956.304V1198.22H939.043V1343.65C939.043 1347.87 939.727 1350.83 941.094 1352.54C942.461 1354.25 945.081 1355.1 948.955 1355.1C951.689 1355.1 954.139 1354.88 956.304 1354.42V1396.12C954.937 1396.58 950.664 1397.43 943.486 1398.68C936.309 1400.05 929.017 1400.73 921.611 1400.73ZM1025.35 1400.73C1011.67 1400.73 1001.19 1397.89 993.901 1392.19C986.724 1386.49 981.825 1378.57 979.204 1368.43C976.584 1358.18 975.273 1346.22 975.273 1332.55V1141.65H1036.8V1325.37C1036.8 1335.62 1037.59 1342.8 1039.19 1346.9C1040.78 1350.89 1044.54 1352.88 1050.47 1352.88C1056.85 1352.88 1060.84 1350.03 1062.43 1344.34C1064.14 1338.64 1065 1331.29 1065 1322.29V1141.65H1126.01V1398H1064.82V1370.66C1060.95 1380.45 1056.28 1387.92 1050.81 1393.04C1045.46 1398.17 1036.97 1400.73 1025.35 1400.73ZM1201.03 1400.73C1189.18 1400.73 1179.78 1398.57 1172.83 1394.24C1165.88 1389.91 1160.7 1383.93 1157.28 1376.3C1153.86 1368.66 1151.58 1359.72 1150.44 1349.46C1149.42 1339.21 1148.91 1328.22 1148.91 1316.48V1205.06C1148.91 1185.35 1152.38 1169.39 1159.33 1157.2C1166.39 1145.01 1178.3 1138.92 1195.05 1138.92C1207.47 1138.92 1216.98 1141.6 1223.59 1146.95C1230.31 1152.19 1235.49 1159.54 1239.14 1169V1097.22H1301.35V1398H1239.14V1370.83C1235.72 1380.06 1231.17 1387.35 1225.47 1392.7C1219.89 1398.06 1211.74 1400.73 1201.03 1400.73ZM1224.44 1352.88C1230.25 1352.88 1234.13 1350.55 1236.06 1345.88C1238.12 1341.2 1239.14 1332.83 1239.14 1320.75V1212.92C1239.14 1206.88 1238.23 1200.95 1236.41 1195.14C1234.7 1189.22 1230.82 1186.26 1224.79 1186.26C1218.18 1186.26 1214.02 1189.05 1212.31 1194.63C1210.6 1200.21 1209.75 1206.31 1209.75 1212.92V1320.75C1209.75 1342.17 1214.65 1352.88 1224.44 1352.88ZM1324.59 1125.93V1075H1385.77V1125.93H1324.59ZM1324.59 1398V1141.65H1385.77V1398H1324.59ZM1484.55 1400.73C1433.51 1400.73 1407.99 1374.25 1407.99 1321.27V1218.39C1407.99 1194.23 1414.77 1174.98 1428.33 1160.62C1441.88 1146.15 1460.62 1138.92 1484.55 1138.92C1508.59 1138.92 1527.39 1146.15 1540.95 1160.62C1554.51 1174.98 1561.28 1194.23 1561.28 1218.39V1321.27C1561.28 1374.25 1535.71 1400.73 1484.55 1400.73ZM1484.55 1353.57C1489.68 1353.57 1493.32 1351.74 1495.49 1348.1C1497.77 1344.34 1498.91 1339.61 1498.91 1333.91V1208.64C1498.91 1193.72 1494.12 1186.26 1484.55 1186.26C1474.98 1186.26 1470.2 1193.72 1470.2 1208.64V1333.91C1470.2 1339.61 1471.28 1344.34 1473.44 1348.1C1475.72 1351.74 1479.42 1353.57 1484.55 1353.57ZM1585.04 1398V1097.22H1676.64L1701.93 1280.59L1727.06 1097.22H1819.51V1398H1764.48V1181.3L1729.96 1398H1675.96L1639.38 1181.3V1398H1585.04ZM1894.54 1400.73C1880.86 1400.73 1870.38 1397.89 1863.09 1392.19C1855.91 1386.49 1851.01 1378.57 1848.39 1368.43C1845.77 1358.18 1844.46 1346.22 1844.46 1332.55V1141.65H1905.99V1325.37C1905.99 1335.62 1906.78 1342.8 1908.38 1346.9C1909.97 1350.89 1913.73 1352.88 1919.66 1352.88C1926.04 1352.88 1930.03 1350.03 1931.62 1344.34C1933.33 1338.64 1934.18 1331.29 1934.18 1322.29V1141.65H1995.2V1398H1934.01V1370.66C1930.14 1380.45 1925.47 1387.92 1920 1393.04C1914.65 1398.17 1906.16 1400.73 1894.54 1400.73ZM2090.04 1400.73C2039.46 1400.73 2014.17 1375.1 2014.17 1323.83V1303.49H2075.69V1333.57C2075.69 1339.38 2076.83 1343.94 2079.11 1347.24C2081.39 1350.55 2085.03 1352.2 2090.04 1352.2C2098.93 1352.2 2103.37 1345.53 2103.37 1332.2C2103.37 1321.04 2101.04 1312.72 2096.37 1307.25C2091.7 1301.67 2086 1296.32 2079.28 1291.19L2046.64 1266.07C2036.38 1258.09 2028.58 1249.66 2023.22 1240.77C2017.87 1231.89 2015.19 1219.53 2015.19 1203.69C2015.19 1188.99 2018.67 1176.86 2025.62 1167.29C2032.68 1157.72 2041.96 1150.6 2053.47 1145.92C2065.09 1141.25 2077.63 1138.92 2091.07 1138.92C2140.74 1138.92 2165.58 1163.7 2165.58 1213.26V1218.04H2102.35V1208.3C2102.35 1203.18 2101.44 1198.22 2099.61 1193.43C2097.91 1188.65 2094.49 1186.26 2089.36 1186.26C2080.7 1186.26 2076.37 1190.81 2076.37 1199.93C2076.37 1209.16 2080.02 1216.39 2087.31 1221.63L2125.25 1249.32C2137.1 1257.86 2147.01 1268 2154.99 1279.74C2163.07 1291.47 2167.12 1307.08 2167.12 1326.56C2167.12 1350.72 2160.23 1369.12 2146.44 1381.76C2132.77 1394.41 2113.97 1400.73 2090.04 1400.73ZM2185.58 1125.93V1075H2246.76V1125.93H2185.58ZM2185.58 1398V1141.65H2246.76V1398H2185.58ZM2348.1 1400.73C2319.39 1400.73 2299 1393.39 2286.92 1378.69C2274.96 1363.99 2268.97 1342.4 2268.97 1313.92V1234.96C2268.97 1213.54 2271.25 1195.71 2275.81 1181.47C2280.37 1167.23 2288.34 1156.58 2299.74 1149.51C2311.13 1142.45 2326.97 1138.92 2347.25 1138.92C2361.37 1138.92 2374.02 1141.42 2385.19 1146.44C2396.46 1151.45 2405.35 1158.8 2411.85 1168.48C2418.34 1178.17 2421.59 1190.02 2421.59 1204.03V1243.17H2359.21V1207.28C2359.21 1201.35 2358.35 1196.4 2356.65 1192.41C2354.94 1188.31 2351.23 1186.26 2345.54 1186.26C2335.51 1186.26 2330.5 1193.38 2330.5 1207.62V1331.86C2330.5 1337.1 2331.64 1341.95 2333.92 1346.39C2336.19 1350.72 2339.95 1352.88 2345.2 1352.88C2350.55 1352.88 2354.25 1350.78 2356.3 1346.56C2358.47 1342.23 2359.55 1337.22 2359.55 1331.52V1288.45H2421.59V1333.23C2421.59 1347.36 2418.4 1359.49 2412.02 1369.63C2405.75 1379.66 2397.09 1387.35 2386.04 1392.7C2374.99 1398.06 2362.34 1400.73 2348.1 1400.73Z" fill="black"/>
</g>
<defs>
<clipPath id="clip0_904_2">
<rect width="2600" height="2600" fill="white"/>
</clipPath>
</defs>
</svg>
