<svg width="1426" height="500" viewBox="0 0 1426 500" fill="none" xmlns="http://www.w3.org/2000/svg">
<g clip-path="url(#clip0)">
<rect width="500" height="500" rx="250" fill="white"/>
<rect x="79" y="204" width="250" height="50" rx="25" transform="rotate(-30 79 204)" fill="black"/>
<rect x="179" y="378" width="250" height="50" rx="25" transform="rotate(-30 179 378)" fill="black"/>
<rect x="95.6709" y="309.35" width="334.343" height="50" rx="25" transform="rotate(-30 95.6709 309.35)" fill="black"/>
<path d="M604.7 396.8C577.4 396.8 557.683 390.033 545.55 376.5C533.417 362.967 527.35 341.15 527.35 311.05V281.65H586.5V319.1C586.5 334.033 591.283 341.5 600.85 341.5C606.217 341.5 609.95 339.983 612.05 336.95C614.15 333.683 615.2 328.317 615.2 320.85C615.2 311.05 614.033 303 611.7 296.7C609.367 290.167 606.333 284.8 602.6 280.6C599.1 276.167 592.683 269.4 583.35 260.3L557.45 234.4C537.383 214.8 527.35 193.1 527.35 169.3C527.35 143.633 533.183 124.15 544.85 110.85C556.75 97.3167 574.017 90.55 596.65 90.55C623.717 90.55 643.2 97.7833 655.1 112.25C667 126.483 672.95 148.883 672.95 179.45H611.7L611.35 158.8C611.35 154.833 610.183 151.683 607.85 149.35C605.75 147.017 602.717 145.85 598.75 145.85C594.083 145.85 590.583 147.133 588.25 149.7C585.917 152.267 584.75 155.767 584.75 160.2C584.75 170 590.35 180.15 601.55 190.65L636.55 224.25C644.717 232.183 651.483 239.767 656.85 247C662.217 254 666.533 262.4 669.8 272.2C673.067 281.767 674.7 293.2 674.7 306.5C674.7 336.133 669.217 358.65 658.25 374.05C647.517 389.217 629.667 396.8 604.7 396.8ZM746.428 396.8C730.328 396.8 719.245 393.417 713.178 386.65C707.111 379.883 704.078 369.033 704.078 354.1V194.15H686.928V147.6H704.078V93.35H763.578V147.6H781.078V194.15H763.578V338C763.578 342.433 763.928 345.7 764.628 347.8C765.328 349.9 767.195 350.95 770.228 350.95C772.561 350.95 774.778 350.833 776.878 350.6C778.978 350.367 780.378 350.25 781.078 350.25V392.25C777.578 393.183 772.445 394.117 765.678 395.05C759.145 396.217 752.728 396.8 746.428 396.8ZM849.569 396.8C830.435 396.8 817.252 391.083 810.019 379.65C803.019 368.217 799.519 351.183 799.519 328.55V137.8H861.119V316.3C861.119 317.933 861.119 322.367 861.119 329.6C861.119 336.6 862.169 341.617 864.269 344.65C866.602 347.45 870.102 348.85 874.769 348.85C881.069 348.85 885.035 346.283 886.669 341.15C888.302 335.783 889.119 328.2 889.119 318.4V316.3L889.469 137.8H950.369V394H889.119V366.7C884.919 377.433 880.019 385.133 874.419 389.8C868.819 394.467 860.535 396.8 849.569 396.8ZM1025.28 396.8C1010.34 396.8 999.027 393.3 991.327 386.3C983.86 379.067 978.844 369.617 976.277 357.95C973.944 346.05 972.777 330.883 972.777 312.45L973.477 196.95C973.477 178.75 978.027 163.933 987.127 152.5C996.46 140.833 1009.53 135 1026.33 135C1042.89 135 1055.26 140.483 1063.43 151.45V91.6H1124.68V394H1063.43V366.7C1059.93 376.733 1055.14 384.317 1049.08 389.45C1043.24 394.35 1035.31 396.8 1025.28 396.8ZM1048.73 348.85C1054.79 348.85 1058.76 345.933 1060.63 340.1C1062.49 334.033 1063.43 325.983 1063.43 315.95V305.1V208.85C1063.43 201.383 1062.38 195.083 1060.28 189.95C1058.18 184.817 1054.44 182.25 1049.08 182.25C1043.01 182.25 1038.93 184.7 1036.83 189.6C1034.96 194.267 1034.03 200.683 1034.03 208.85V316.65C1034.03 338.117 1038.93 348.85 1048.73 348.85ZM1148.84 120.65V77.95H1210.09V120.65H1148.84ZM1148.84 394V137.8H1210.09V394H1148.84ZM1308.85 396.8C1257.75 396.8 1232.2 370.317 1232.2 317.35V214.45C1232.2 190.183 1238.97 170.933 1252.5 156.7C1266.27 142.233 1285.05 135 1308.85 135C1332.65 135 1351.32 142.233 1364.85 156.7C1378.62 170.933 1385.5 190.183 1385.5 214.45V317.35C1385.5 370.317 1359.95 396.8 1308.85 396.8ZM1308.85 349.55C1313.75 349.55 1317.37 347.8 1319.7 344.3C1322.03 340.8 1323.2 336.017 1323.2 329.95V204.65C1323.2 189.717 1318.42 182.25 1308.85 182.25C1299.28 182.25 1294.5 189.717 1294.5 204.65V329.95C1294.5 336.017 1295.67 340.8 1298 344.3C1300.33 347.8 1303.95 349.55 1308.85 349.55Z" fill="white"/>
</g>
<defs>
<clipPath id="clip0">
<rect width="1426" height="500" fill="white"/>
</clipPath>
</defs>
</svg>
