<svg width="500" height="500" viewBox="0 0 500 500" fill="none" xmlns="http://www.w3.org/2000/svg">
<path fill-rule="evenodd" clip-rule="evenodd" d="M250 0C111.929 0 0 111.929 0 250C0 388.071 111.929 500 250 500C388.071 500 500 388.071 500 250C500 111.929 388.071 0 250 0ZM100.651 194.5C88.6933 201.404 84.5964 216.693 91.5 228.651C98.4036 240.608 113.693 244.705 125.651 237.801L298.856 137.801C310.813 130.898 314.91 115.608 308.006 103.651C301.103 91.6933 285.813 87.5964 273.856 94.5L100.651 194.5ZM191.5 396.651C184.596 384.693 188.693 369.404 200.651 362.5L373.856 262.5C385.813 255.596 401.103 259.693 408.006 271.651C414.91 283.608 410.813 298.898 398.856 305.801L225.651 405.801C213.693 412.705 198.404 408.608 191.5 396.651ZM114.651 299.671C102.693 306.575 98.5964 321.865 105.5 333.822C112.404 345.779 127.693 349.876 139.651 342.973L385.899 200.801C397.856 193.898 401.953 178.608 395.049 166.651C388.146 154.693 372.856 150.596 360.899 157.5L114.651 299.671Z" fill="#066BFF"/>
</svg>
