<svg width="250" height="200" viewBox="0 0 250 200" fill="none" xmlns="http://www.w3.org/2000/svg">
<path fill-rule="evenodd" clip-rule="evenodd" d="M10 0C4.47715 0 0 4.47716 0 10V190C0 195.523 4.47716 200 10 200H240C245.523 200 250 195.523 250 190V10C250 4.47715 245.523 0 240 0H10ZM30 20C24.4772 20 20 24.4772 20 30V170C20 175.523 24.4772 180 30 180H220C225.523 180 230 175.523 230 170V30C230 24.4772 225.523 20 220 20H30Z" fill="white"/>
<rect x="110" y="93" width="100" height="70" rx="10" fill="white"/>
</svg>
